<svg width="241" height="175" viewBox="0 0 241 175" fill="none" xmlns="http://www.w3.org/2000/svg">
<path d="M231.417 36.5921C211.358 34.3433 195.889 33.2036 166.347 31.7534C147.649 30.9124 130.44 29.9199 128.028 29.5774C125.616 29.235 123.372 29.3738 123.064 29.7716C122.653 30.218 125.021 36.201 128.282 43.0048C131.517 49.8836 134.234 56.0739 134.323 56.7805C134.487 57.5136 133.378 62.1038 132.013 66.9415C128.803 78.2207 125.824 92.1985 126.215 94.4464C126.672 97.2242 129.127 96.4845 140.694 90.0039C144.659 87.8539 148.288 86.1768 148.814 86.3618C149.34 86.5469 151.543 90.3613 153.609 94.803C160.614 109.678 161.468 111.329 162.651 111.324C163.256 111.283 167.626 107.503 172.335 102.998C199.34 76.8799 216.297 61.3222 228.369 51.7272C233.45 47.6063 238.282 43.2294 239.01 41.8816C240.104 39.7341 240.086 39.3056 238.716 38.4013C237.845 37.7572 236.921 37.2633 236.696 37.1839C236.444 37.1797 234.081 36.9388 231.417 36.5921ZM224.875 40.7894C219.942 42.0921 207.947 44.0325 181.948 47.6279C166.349 49.7348 150.393 52.1379 146.475 52.954C142.585 53.6949 139.025 54.2147 138.574 54.0561C136.546 53.3423 127.126 33.8185 128.521 33.2122C129.943 32.5308 222.21 39.0072 225.568 40.0202C226.345 40.2095 226.089 40.4571 224.875 40.7894ZM223.324 50.7112C221.201 52.6653 213.155 59.4565 205.594 65.8278C187.33 81.2629 177.668 89.7649 169.605 97.5632C165.995 101.104 162.649 103.894 162.274 103.762C161.823 103.603 159.385 98.7777 156.686 93.0159C154.062 87.2805 150.841 81.0818 149.563 79.1969L147.126 75.8067L151.736 74.2216C154.244 73.3316 167.65 68.3423 181.537 63.1848C203.659 55.0167 226.408 46.9851 227.009 47.1966C227.16 47.2494 225.496 48.8586 223.324 50.7112ZM214.054 46.3507C214.001 46.5009 205.156 49.8035 194.44 53.6288C174.477 60.6996 167.279 63.4001 150.496 70.0707C141.241 73.8197 140.91 74.0408 137.61 78.6196C132.687 85.4126 131.984 85.2498 134.575 77.8889C135.791 74.4339 137.708 68.2706 138.857 64.2855L140.843 56.9649L173.688 52.1491C191.764 49.4791 208.175 46.9829 210.171 46.5881C214.036 45.9222 214.212 45.9 214.054 46.3507ZM145.761 80.6445C146.695 82.0703 146.514 82.3443 141.684 85.034C138.911 86.675 136.448 87.9183 136.297 87.8654C135.847 87.7068 138.017 84.4187 140.766 81.1655C143.233 78.2349 144.116 78.1238 145.761 80.6445Z" fill="#A0A0A0"/>
<path d="M115.068 75.75C113.722 76.4579 112.702 77.1964 112.874 77.4259C113.264 78.2383 119.597 77.513 119.587 76.581C119.617 74.8186 117.558 74.4317 115.068 75.75Z" fill="#A0A0A0"/>
<path d="M95.8591 81.3979C92.4773 83.331 90.6062 85.2893 91.7329 85.6859C92.7844 86.056 99.6465 83.8285 101.253 82.6213C103.575 80.8216 103.579 80.5698 101.476 79.8296C100.274 79.4066 98.402 79.9294 95.8591 81.3979Z" fill="#A0A0A0"/>
<path d="M78.1684 91.1257C75.5407 91.6359 70.4742 96.437 69.8493 99.1716C69.1493 101.88 70.5247 103.968 71.3707 101.564C71.6615 100.738 73.4047 98.9036 75.2674 97.4489C80.754 93.1332 81.9311 90.5086 78.1684 91.1257Z" fill="#A0A0A0"/>
<path d="M82.3003 109.126C79.4599 108.801 77.3929 108.918 77.5612 109.399C77.831 109.832 81.4014 111.679 85.5019 113.46C92.3285 116.37 93.1061 116.559 94.0284 115.617C96.367 112.811 91.5016 110.085 82.3003 109.126Z" fill="#A0A0A0"/>
<path d="M99.8927 118.864C99.3639 120.366 99.7738 124.478 100.535 125.674C102.843 129.188 105.574 125.506 103.601 121.519C102.459 119.007 100.342 117.587 99.8927 118.864Z" fill="#A0A0A0"/>
<path d="M66.6324 107.832C64.6934 107.824 54.8167 112.621 54.4466 113.672C53.9178 115.175 55.1502 115.271 58.3692 114.04C60.0162 113.438 61.4336 113.008 61.659 113.088C61.8843 113.167 61.6518 115.027 61.2384 117.16C60.7986 119.369 60.8539 122.09 61.2613 123.331C62.1068 125.486 62.1068 125.486 63.9827 118.717C65.5148 112.925 66.0616 111.852 67.6377 110.971C70.2293 109.604 69.6801 107.807 66.6324 107.832Z" fill="#A0A0A0"/>
<path d="M102.122 133.155C99.4026 134.646 96.1068 138.973 96.9204 140.019C97.8091 141.091 100.437 140.581 101.518 139.189C103.684 136.153 105.253 132.653 104.652 132.442C104.202 132.283 103.063 132.642 102.122 133.155Z" fill="#A0A0A0"/>
<path d="M45.4978 118.711C42.2218 120.343 36.7892 125.944 34.6814 130.014C33.2483 132.886 33.2219 132.961 34.926 131.957C35.8928 131.369 38.369 129.371 40.3639 127.54C42.4339 125.736 45.2719 123.19 46.702 122.005C48.7191 120.351 49.1866 119.503 48.7485 118.589C48.3105 117.675 47.5287 117.737 45.4978 118.711Z" fill="#A0A0A0"/>
<path d="M65.2344 131.229C61.5204 131.948 67.3671 140.759 71.3774 140.398C73.1175 140.251 73.0202 140.048 70.4778 136.958C68.9215 135.144 67.7672 133.387 67.8729 133.087C68.2166 132.11 66.5239 130.923 65.2344 131.229Z" fill="#A0A0A0"/>
<path d="M83.7821 142.57C79.5633 141.844 77.3094 145.61 81.1401 146.958C84.5952 148.174 91.1093 147.175 90.357 145.475C89.9412 144.738 86.0174 142.934 83.7821 142.57Z" fill="#A0A0A0"/>
<path d="M24.5972 139.718C21.2419 141.576 15.5931 152.588 17.6962 153.328C18.3722 153.566 26.5801 144.637 28.265 141.769C29.275 140.098 29.1819 139.644 27.9801 139.221C27.1539 138.93 25.6391 139.156 24.5972 139.718Z" fill="#A0A0A0"/>
<path d="M5.56973 161.638C4.91176 161.828 3.54838 163.543 2.68433 165.518C1.37925 168.267 1.20801 169.473 1.88102 171.398L2.67361 173.703L4.15658 172.368C6.63699 170.118 9.36132 163.817 8.42393 162.643C7.43787 161.367 7.13743 161.261 5.56973 161.638Z" fill="#A0A0A0"/>
</svg>
